<svg version="1.2" xmlns="http://www.w3.org/2000/svg" viewBox="0 0 1547 1237" width="1547" height="1237">
	<title>INDIANB</title>
	<style>
		.s0 { fill: #ffffff } 
		.s1 { fill: #f0b542 } 
	</style>
	<path fill-rule="evenodd" class="s0" d="m837.9 679.5l2.7 2.6c377-500.9 1045.1-29.3 500.9 432.3l101.9 88-35.3 31.3-471.6-34.7-10.6-232.4c-90.6 255.7-624.8 365-756.7-149.3l-140.6 25.4 218.5-338.4 31.3-31.3 238.5 130.5c-289.8-205.2-70.6-708.1 546.8-506.2l17.4-68.7 31.9-27.9 242.5 375-35.3 34.6-454.3 156.6 53.3-131.9c-193.8-65.3-277.8 135.2-81.3 250.4-97.9 2-178.5-13.3-243.7-39.9l131.2 71.3-38.7 31.3-115.9-2.7c10 157.9 276.5 162.5 267.8-60zm4 4c39.3 41.3 65.9 82.6 81.3 123.3l30.6-30.7 105.9 94c143.2-121.3-19.3-307.1-217.8-186.6z"/>
	<path fill-rule="evenodd" class="s1" d="m814 718.1c396.3 456.3-493.6 822-669.5 136.5l-143.8 22 246.4-372.3 439.6 247.1-151.2 28.6c38.7 171.9 269.8 146.6 277.8-61.9l-3.3 2c-696.8 12.6-549.6-842 229.1-588.2l38.6-97.3 239.2 375.7-479 191.2 56.7-131.2c-197.2-66-281.8 134.5-84.6 249.8 351.7-525.6 1055.7-31.3 506.9 432.3l84.6 81.3-489.6 2.6 10.6-425 109.3 96.6c146.5-124.5-19.3-310.4-217.8-189.8z"/>
</svg>