<svg version="1.2" xmlns="http://www.w3.org/2000/svg" viewBox="0 0 1544 1544" width="1544" height="1544"><style>.a{fill:#00b6ef}</style><path class="a" d="m850.9 1261.8c0-85.2 0.6-170.5-0.6-255.8 0-17 4.6-25.5 20.5-33.5 93.8-46.6 140.4-148.9 116-251.2-22.8-97.2-113.2-167.7-214.9-167.7-101.2 0-190.5 71.1-214.9 171.7-23.3 97.1 24.4 200.6 115.9 246.6 18.2 9.1 22.8 18.8 22.8 37.5-0.6 167.2-0.6 333.7-0.6 500.8 0 35.8 0 35.8-34.7 30.1-256.4-41.5-447.9-177.3-569.6-405.8-246.7-463.2 39.2-1038.4 554.9-1123.1 412.1-68.2 803.8 204.6 883.4 613.8 84.1 430.9-204.1 844.6-636.7 914.5-41.5 6.3-41.5 6.3-41.5-35.8z"/></svg>